<svg version="1.1" xmlns="http://www.w3.org/2000/svg" xmlns:xlink="http://www.w3.org/1999/xlink" width="375.51413" height="224.71454" viewBox="0,0,375.51413,224.71454"><g transform="translate(-138.91481,-79.46149)"><g stroke-miterlimit="10"><path d="M176.2704,113.30565c-4.17795,8.8987 -14.77866,12.72562 -23.67736,8.54767c-8.8987,-4.17795 -12.72562,-14.77866 -8.54767,-23.67736c4.17795,-8.8987 14.77866,-12.72562 23.67736,-8.54767c8.8987,4.17795 12.72562,14.77866 8.54767,23.67736z" fill="#00f3ff" stroke="#00a9ff" stroke-width="1" stroke-linecap="butt"/><text transform="translate(231.25004,297.92604) scale(0.5,0.5)" font-size="40" xml:space="preserve" fill-opacity="0.28235" fill="#ffffff" stroke="none" stroke-width="1" stroke-linecap="butt" font-family="Archivo Black" font-weight="400" text-anchor="start"><tspan x="0" dy="0">click to continue</tspan></text><text transform="translate(199.20857,124.3406) scale(1.2642,1.2642)" font-size="40" xml:space="preserve" fill="#ffffff" stroke="none" stroke-width="1" stroke-linecap="butt" font-family="Archivo Black" font-weight="normal" text-anchor="start"><tspan x="0" dy="0">P L A N E T S</tspan></text><path d="M176.2704,113.30565c-4.17795,8.8987 -14.77866,12.72562 -23.67736,8.54767c-8.8987,-4.17795 -12.72562,-14.77866 -8.54767,-23.67736c4.17795,-8.8987 14.77866,-12.72562 23.67736,-8.54767c8.8987,4.17795 12.72562,14.77866 8.54767,23.67736z" fill="#00f3ff" stroke="none" stroke-width="0" stroke-linecap="butt"/><path d="M142.16481,94.16071c0,0 1.00426,6.73607 15.74609,14.46308c14.72638,7.71892 21.9543,5.00486 21.9543,5.00486" fill="none" stroke="#1f9c00" stroke-width="6.5" stroke-linecap="round"/><path d="M142.16481,94.16071c0,0 1.00426,6.73607 15.74609,14.46308c14.72638,7.71892 21.9543,5.00486 21.9543,5.00486" fill="none" stroke="#35ff00" stroke-width="5.5" stroke-linecap="round"/></g></g></svg>