<svg version="1.1" xmlns="http://www.w3.org/2000/svg" xmlns:xlink="http://www.w3.org/1999/xlink" width="26.12841" height="48.63927" viewBox="0,0,26.12841,48.63927"><g transform="translate(-307.3375,-157.0566)"><g stroke-miterlimit="10"><path d="M323.97826,185.33716l1.73913,11.73913" fill="none" stroke="#000000" stroke-width="1" stroke-linecap="round"/><path d="M312.63043,197.88064v-13.91304h11.43478v13.91304z" fill="#00ffff" stroke="#000000" stroke-width="1" stroke-linecap="butt"/><path d="M307.8375,174.46876c0,-5.90599 4.78776,-10.69375 10.69375,-10.69375c5.906,0 10.69375,4.78776 10.69375,10.69375c0,5.90599 -4.78776,10.69375 -10.69375,10.69375c-5.906,0 -10.69375,-4.78776 -10.69375,-10.69375z" fill="#ffffff" stroke="#000000" stroke-width="1" stroke-linecap="butt"/><path d="M318.0135,180.33203c0,0 -1.16634,0.12398 -1.6364,0.05915c-0.43759,-0.06035 -1.09351,-0.43568 -1.09351,-0.43568" fill="none" stroke="#000000" stroke-width="1" stroke-linecap="round"/><path d="M310.20029,181.08511c-2.41377,-3.63238 -1.03548,-9.13111 -1.03548,-9.13111c0,0 0.8069,4.40026 3.01232,7.71909c2.20542,3.31883 6.49533,4.89503 6.49533,4.89503c0,0 -6.0584,0.14937 -8.47217,-3.48301z" fill="#bbbbbb" stroke="#bbbbbb" stroke-width="1" stroke-linecap="round"/><path d="M307.8375,174.46876c0,-5.90599 4.78776,-10.69375 10.69375,-10.69375c5.90599,0 10.69375,4.78776 10.69375,10.69375c0,5.90599 -4.78776,10.69375 -10.69375,10.69375c-5.90599,0 -10.69375,-4.78776 -10.69375,-10.69375z" fill="none" stroke="#000000" stroke-width="1" stroke-linecap="butt"/><path d="M317.71105,173.83309c0,0.56955 -0.47569,0.46603 -1.0625,0.46603c-0.58681,0 -1.0625,0.147 -1.0625,-0.42255c0,-0.56955 0.47569,-0.553 1.0625,-0.553c0.58681,0 1.0625,-0.06003 1.0625,0.50952z" fill="#000000" stroke="#000000" stroke-width="0" stroke-linecap="butt"/><path d="M325.02355,173.83308c0,0.56955 -0.47569,0.46603 -1.0625,0.46603c-0.58681,0 -1.0625,0.10352 -1.0625,-0.46603c0,-0.56955 0.47569,-0.55299 1.0625,-0.55299c0.58681,0 1.0625,-0.01656 1.0625,0.55299z" fill="#000000" stroke="#000000" stroke-width="0" stroke-linecap="butt"/><path d="M310.19565,195.42411l2.82609,-9.60869" fill="none" stroke="#000000" stroke-width="1" stroke-linecap="round"/><path d="M309.5616,167.4588l0.64254,-6.36692l4.14726,-3.50473l8.23611,1.34348l3.21267,4.90662l0.05841,3.21267l6.2501,1.81077l-4.26408,2.16125l-14.54461,-0.75936z" fill="#00ceff" stroke="#000000" stroke-width="1" stroke-linecap="round"/><path d="M315.02174,205.19586l0.04348,-6.82609" fill="none" stroke="#000000" stroke-width="1" stroke-linecap="round"/><path d="M320.84783,198.19586l0.17391,6.73913" fill="none" stroke="#000000" stroke-width="1" stroke-linecap="round"/></g></g></svg>