<svg version="1.1" xmlns="http://www.w3.org/2000/svg" xmlns:xlink="http://www.w3.org/1999/xlink" width="29.05869" height="46.60225" viewBox="0,0,29.05869,46.60225"><g transform="translate(-302.18718,-158.09446)"><g stroke-miterlimit="10"><path d="M330.74586,194.02345l-6.1569,-9.83588" fill="none" stroke="#000000" stroke-width="1" stroke-linecap="round"/><path d="M315.74531,198.60639l-2.56231,-13.67506l11.23919,-2.1059l2.56231,13.67506z" fill="#00ffff" stroke="#000000" stroke-width="1" stroke-linecap="butt"/><path d="M306.72269,176.47766c-1.08768,-5.80497 2.73644,-11.39258 8.54141,-12.48026c5.80498,-1.08768 11.39258,2.73644 12.48026,8.54141c1.08768,5.80497 -2.73644,11.39258 -8.54141,12.48026c-5.80498,1.08768 -11.39258,-2.73644 -12.48026,-8.54141z" fill="#ffffff" stroke="#000000" stroke-width="1" stroke-linecap="butt"/><path d="M315.0519,180.49923c0,0 0.59371,-0.39291 1.03493,-0.41418c0.47396,-0.02285 1.71762,0.28151 1.71762,0.28151" fill="none" stroke="#000000" stroke-width="1" stroke-linecap="round"/><path d="M310.26358,182.54569c-3.04144,-3.12571 -2.69941,-8.78423 -2.69941,-8.78423c0,0 1.60348,4.17639 4.38239,7.03229c2.77892,2.8559 7.28573,3.61508 7.28573,3.61508c0,0 -5.92727,1.26256 -8.96871,-1.86315z" fill="#bbbbbb" stroke="#bbbbbb" stroke-width="1" stroke-linecap="round"/><path d="M306.72269,176.47766c-1.08768,-5.80497 2.73644,-11.39258 8.54141,-12.48026c5.80497,-1.08768 11.39258,2.73644 12.48026,8.54141c1.08768,5.80497 -2.73644,11.39258 -8.54141,12.48026c-5.80497,1.08768 -11.39258,-2.73644 -12.48026,-8.54141z" fill="none" stroke="#000000" stroke-width="1" stroke-linecap="butt"/><path d="M316.2062,173.47893c0,0 -1.02014,1.15187 -1.59691,1.25994c-0.57677,0.10807 0.32021,-1.02072 0.32021,-1.02072c0,0 -1.39171,-0.56726 -0.81494,-0.67532c0.57677,-0.10807 2.09164,0.43612 2.09164,0.43612z" fill="#000000" stroke="#000000" stroke-width="0" stroke-linecap="butt"/><path d="M313.90793,186.67547l1.27774,9.27184" fill="none" stroke="#000000" stroke-width="1" stroke-linecap="round"/><path d="M305.22365,172.3791l-2.49721,-5.8919l1.95188,-5.06686l7.8679,-2.78111l5.17579,2.75815l1.59558,2.78904l6.35104,-1.41666l-2.70015,3.94494l-13.1189,6.32588z" fill="#00ceff" stroke="#000000" stroke-width="1" stroke-linecap="round"/><path d="M318.22854,198.63874l2.72233,5.55797" fill="none" stroke="#000000" stroke-width="1" stroke-linecap="round"/><path d="M323.88021,197.40285l2.958,5.78167" fill="none" stroke="#000000" stroke-width="1" stroke-linecap="round"/><path d="M323.12565,171.35441c0.57677,-0.10807 -0.51517,0.92455 -0.51517,0.92455c0,0 1.24479,0.72748 0.66802,0.83556c-0.57677,0.10807 -1.94472,-0.59634 -1.94472,-0.59634c0,0 1.21509,-1.0557 1.79187,-1.16377z" fill="#000000" stroke="#000000" stroke-width="0" stroke-linecap="butt"/></g></g></svg>