<svg version="1.1" xmlns="http://www.w3.org/2000/svg" xmlns:xlink="http://www.w3.org/1999/xlink" width="52.53383" height="33.27634" viewBox="0,0,52.53383,33.27634"><g transform="translate(-275.98047,-171.67951)"><g stroke-miterlimit="10"><path d="M324.9466,204.45585l-5.99015,-1.55571" fill="none" stroke="#000000" stroke-width="1" stroke-linecap="round"/><path d="M328.0143,199.32997l-6.3134,-1.52265" fill="none" stroke="#000000" stroke-width="1" stroke-linecap="round"/><path d="M315.8082,187.23959l11.59748,-0.38775" fill="none" stroke="#000000" stroke-width="1" stroke-linecap="round"/><path d="M317.34558,203.85348l-9.63131,-10.04045l8.25199,-7.91574l9.63131,10.04045z" fill="#00ffff" stroke="#000000" stroke-width="1" stroke-linecap="butt"/><path d="M297.67984,190.27603c-4.08842,-4.2621 -3.94764,-11.03155 0.31446,-15.11998c4.2621,-4.08843 11.03155,-3.94764 15.11998,0.31446c4.08842,4.2621 3.94764,11.03155 -0.31446,15.11998c-4.2621,4.08843 -11.03155,3.94764 -15.11998,-0.31446z" fill="#ffffff" stroke="#000000" stroke-width="1" stroke-linecap="butt"/><path d="M306.85157,189.081c0,0 0.28169,-0.65385 0.63927,-0.91321c0.3841,-0.27861 1.59143,-0.70484 1.59143,-0.70484" fill="none" stroke="#000000" stroke-width="1" stroke-linecap="round"/><path d="M303.96513,193.41512c-4.25642,-0.9504 -7.06828,-5.87273 -7.06828,-5.87273c0,0 3.62839,2.6169 7.5174,3.48525c3.88902,0.86835 8.07599,-0.96387 8.07599,-0.96387c0,0 -4.2687,4.30173 -8.52511,3.35133z" fill="#bbbbbb" stroke="#bbbbbb" stroke-width="1" stroke-linecap="round"/><path d="M297.67984,190.27603c-4.08842,-4.2621 -3.94764,-11.03155 0.31446,-15.11998c4.2621,-4.08842 11.03155,-3.94764 15.11998,0.31446c4.08842,4.2621 3.94764,11.03155 -0.31446,15.11998c-4.2621,4.08842 -11.03155,3.94764 -15.11998,-0.31446z" fill="none" stroke="#000000" stroke-width="1" stroke-linecap="butt"/><path d="M303.97384,182.57442c0,0 -0.22301,1.52241 -0.64648,1.92864c-0.42347,0.40621 -0.29089,-1.02945 -0.29089,-1.02945c0,0 -1.47516,0.28729 -1.05169,-0.11893c0.42347,-0.40621 1.98907,-0.78024 1.98907,-0.78024z" fill="#000000" stroke="#000000" stroke-width="0" stroke-linecap="butt"/><path d="M317.71942,197.92314l-8.85642,-3.02711" fill="none" stroke="#000000" stroke-width="1" stroke-linecap="round"/><path d="M293.67273,188.95401l-4.52953,4.52039l-5.42914,0.08578l-5.52303,-6.25577l0.62116,-5.83183l1.98942,-2.52325l-3.69014,-5.35962l4.6687,1.02792l10.77509,9.79896z" fill="#00ceff" stroke="#000000" stroke-width="1" stroke-linecap="round"/><path d="M308.60086,177.00818c0.42347,-0.40621 0.0751,1.05572 0.0751,1.05572c0,0 1.43995,-0.07277 1.01648,0.33345c-0.42347,0.40621 -1.95384,0.56573 -1.95384,0.56573c0,0 0.4388,-1.54867 0.86227,-1.9549z" fill="#000000" stroke="#000000" stroke-width="0" stroke-linecap="butt"/></g></g></svg>