<svg version="1.1" xmlns="http://www.w3.org/2000/svg" xmlns:xlink="http://www.w3.org/1999/xlink" width="24.90676" height="47.59046" viewBox="0,0,24.90676,47.59046"><g transform="translate(-306.53486,-158.09809)"><g stroke-miterlimit="10"><path d="M324.26383,184.96442l3.65656,10.95273" fill="none" stroke="#000000" stroke-width="1" stroke-linecap="round"/><path d="M313.99116,198.40259l-1.14952,-13.86547l11.39568,-0.94476l1.14952,13.86547z" fill="#00ffff" stroke="#000000" stroke-width="1" stroke-linecap="butt"/><path d="M307.28029,175.46676c-0.48796,-5.8858 3.88786,-11.05276 9.77365,-11.54072c5.88581,-0.48796 11.05276,3.88786 11.54072,9.77365c0.48796,5.8858 -3.88786,11.05276 -9.77365,11.54072c-5.88581,0.48796 -11.05276,-3.88786 -11.54072,-9.77365z" fill="#ffffff" stroke="#000000" stroke-width="1" stroke-linecap="butt"/><path d="M315.15425,180.31953c0,0 0.6308,-0.33009 1.07188,-0.3061c0.47381,0.02577 1.6798,0.45579 1.6798,0.45579" fill="none" stroke="#000000" stroke-width="1" stroke-linecap="round"/><path d="M310.18166,181.86527c-2.70563,-3.42053 -1.78637,-9.01434 -1.78637,-9.01434c0,0 1.1677,4.31855 3.63978,7.44382c2.47209,3.12527 6.87756,4.34164 6.87756,4.34164c0,0 -6.02535,0.64941 -8.73098,-2.77112z" fill="#bbbbbb" stroke="#bbbbbb" stroke-width="1" stroke-linecap="round"/><path d="M307.28029,175.46676c-0.48796,-5.8858 3.88786,-11.05276 9.77365,-11.54072c5.8858,-0.48796 11.05276,3.88786 11.54072,9.77365c0.48796,5.8858 -3.88786,11.05276 -9.77365,11.54072c-5.8858,0.48796 -11.05276,-3.88786 -11.54072,-9.77365z" fill="none" stroke="#000000" stroke-width="1" stroke-linecap="butt"/><path d="M317.02087,173.4542c0,0 -1.13265,1.04143 -1.71745,1.08992c-0.5848,0.04848 0.42298,-0.9826 0.42298,-0.9826c0,0 -1.32636,-0.70669 -0.74156,-0.75517c0.5848,-0.04848 2.03603,0.64786 2.03603,0.64786z" fill="#000000" stroke="#000000" stroke-width="0" stroke-linecap="butt"/><path d="M313.38429,186.34629l-1.29312,9.66161" fill="none" stroke="#000000" stroke-width="1" stroke-linecap="round"/><path d="M307.86459,169.85464l-0.80819,-6.34802l3.25119,-4.34887l8.32706,-0.54632l4.23537,4.05682l0.7806,3.11694l6.49736,0.35633l-3.66764,3.06623l-14.34185,2.53649z" fill="#00ceff" stroke="#000000" stroke-width="1" stroke-linecap="round"/><path d="M316.45804,198.68888l1.06238,6.49967" fill="none" stroke="#000000" stroke-width="1" stroke-linecap="round"/><path d="M322.20651,198.0378l1.12008,6.66939" fill="none" stroke="#000000" stroke-width="1" stroke-linecap="round"/><path d="M324.12139,172.04888c0.5848,-0.04848 -0.60707,0.86698 -0.60707,0.86698c0,0 1.16381,0.85104 0.57901,0.89953c-0.5848,0.04848 -1.87349,-0.79221 -1.87349,-0.79221c0,0 1.31674,-0.92582 1.90155,-0.9743z" fill="#000000" stroke="#000000" stroke-width="0" stroke-linecap="butt"/></g></g></svg>