<svg version="1.1" xmlns="http://www.w3.org/2000/svg" xmlns:xlink="http://www.w3.org/1999/xlink" width="42.99904" height="47.93168" viewBox="0,0,42.99904,47.93168"><g transform="translate(-288.54625,-156.51754)"><g stroke-miterlimit="10"><path d="M324.71481,203.94922l-5.49107,-2.85486" fill="none" stroke="#000000" stroke-width="1" stroke-linecap="round"/><path d="M323.03677,196.74354l5.81354,2.89487" fill="none" stroke="#000000" stroke-width="1" stroke-linecap="round"/><path d="M319.6544,185.1263l11.39089,2.21348" fill="none" stroke="#000000" stroke-width="1" stroke-linecap="round"/><path d="M317.44057,201.66365l-7.14428,-11.93868l9.8121,-5.87171l7.14428,11.93868z" fill="#00ffff" stroke="#000000" stroke-width="1" stroke-linecap="butt"/><path d="M301.30591,184.03523c-3.03269,-5.06788 -1.38285,-11.63472 3.68503,-14.66742c5.06789,-3.0327 11.63472,-1.38285 14.66742,3.68503c3.03269,5.06788 1.38285,11.63472 -3.68503,14.66742c-5.06789,3.0327 -11.63472,1.38285 -14.66742,-3.68503z" fill="#ffffff" stroke="#000000" stroke-width="1" stroke-linecap="butt"/><path d="M310.51277,184.91982c0,0 0.42067,-0.57437 0.82716,-0.74728c0.43664,-0.18574 1.70869,-0.33142 1.70869,-0.33142" fill="none" stroke="#000000" stroke-width="1" stroke-linecap="round"/><path d="M306.73086,188.49938c-3.93644,-1.87746 -5.57732,-7.30363 -5.57732,-7.30363c0,0 2.95191,3.36149 6.54856,5.07688c3.59666,1.71539 8.08717,0.86506 8.08717,0.86506c0,0 -5.12198,3.23913 -9.05841,1.36168z" fill="#bbbbbb" stroke="#bbbbbb" stroke-width="1" stroke-linecap="round"/><path d="M301.30591,184.03523c-3.03269,-5.06788 -1.38285,-11.63472 3.68503,-14.66742c5.06788,-3.03269 11.63472,-1.38285 14.66742,3.68503c3.03269,5.06788 1.38285,11.63472 -3.68503,14.66742c-5.06788,3.03269 -11.63472,1.38285 -14.66742,-3.68503z" fill="none" stroke="#000000" stroke-width="1" stroke-linecap="butt"/><path d="M309.16168,177.93473c0,0 -0.55755,1.43409 -1.06108,1.73542c-0.50353,0.30132 -0.05351,-1.06842 -0.05351,-1.06842c0,0 -1.50206,-0.0496 -0.99852,-0.35092c0.50353,-0.30132 2.11312,-0.31606 2.11312,-0.31606z" fill="#000000" stroke="#000000" stroke-width="0" stroke-linecap="butt"/><path d="M319.13008,195.96679l-7.95609,-4.92952" fill="none" stroke="#000000" stroke-width="1" stroke-linecap="round"/><path d="M298.99407,180.43333l-6.37299,-0.57928l-3.54576,-4.11224l1.26162,-8.24905l4.87446,-3.26125l3.21192,-0.09032l1.7486,-6.26778l2.2035,4.2424l-0.61484,14.55143z" fill="#00ceff" stroke="#000000" stroke-width="1" stroke-linecap="round"/><path d="M314.91548,173.54312c0.50353,-0.30132 -0.1627,1.04581 -0.1627,1.04581c0,0 1.4198,0.25082 0.91627,0.55215c-0.50353,0.30132 -2.03085,0.11484 -2.03085,0.11484c0,0 0.77375,-1.41147 1.27729,-1.7128z" fill="#000000" stroke="#000000" stroke-width="0" stroke-linecap="butt"/></g></g></svg>