<svg version="1.1" xmlns="http://www.w3.org/2000/svg" xmlns:xlink="http://www.w3.org/1999/xlink" width="652.70504" height="42.75" viewBox="0,0,652.70504,42.75"><g transform="translate(12.70504,0.04005)"><g stroke-miterlimit="10"><path d="M-12.70504,42.70995v-42.75h652.70504v42.75z" fill="#3d3d3d" stroke="none" stroke-width="0" stroke-linecap="butt"/><text transform="translate(53.5,30.75) scale(0.5,0.5)" font-size="40" xml:space="preserve" fill="#ffffff" stroke="none" stroke-width="1" stroke-linecap="butt" font-family="Archivo Black" font-weight="normal" text-anchor="start"><tspan x="0" dy="0">P L A N E T S</tspan></text><path d="M41.02159,30.20795c-3.01434,6.42031 -10.66263,9.18139 -17.08294,6.16704c-6.42031,-3.01434 -9.18139,-10.66263 -6.16704,-17.08294c3.01434,-6.42031 10.66263,-9.18139 17.08294,-6.16704c6.42031,3.01434 9.18139,10.66263 6.16704,17.08294z" fill="#00f3ff" stroke="#00a9ff" stroke-width="1" stroke-linecap="butt"/><path d="M41.02159,30.20795c-3.01434,6.42031 -10.66263,9.18139 -17.08294,6.16704c-6.42031,-3.01434 -9.18139,-10.66263 -6.16704,-17.08294c3.01434,-6.42031 10.66263,-9.18139 17.08294,-6.16704c6.42031,3.01434 9.18139,10.66263 6.16704,17.08294z" fill="#00f3ff" stroke="none" stroke-width="0" stroke-linecap="butt"/><path d="M43.61519,30.44099c0,0 -5.21486,1.95816 -15.83977,-3.61095c-10.63606,-5.57495 -11.36062,-10.43494 -11.36062,-10.43494" fill="none" stroke="#1f9c00" stroke-width="6.5" stroke-linecap="round"/><path d="M43.61519,30.44099c0,0 -5.21486,1.95816 -15.83977,-3.61095c-10.63606,-5.57495 -11.36062,-10.43494 -11.36062,-10.43494" fill="none" stroke="#35ff00" stroke-width="5.5" stroke-linecap="round"/></g></g></svg>