<svg version="1.1" xmlns="http://www.w3.org/2000/svg" xmlns:xlink="http://www.w3.org/1999/xlink" width="69.82088" height="29.90913" viewBox="0,0,69.82088,29.90913"><g transform="translate(-258.26341,-176.13549)"><g stroke-miterlimit="10"><path d="M325.65555,204.35078l-6.183,-0.26951" fill="none" stroke="#000000" stroke-width="1" stroke-linecap="round"/><path d="M321.09209,198.52736l6.4922,0.16963" fill="none" stroke="#000000" stroke-width="1" stroke-linecap="round"/><path d="M313.12102,189.42445l11.26036,-2.80287" fill="none" stroke="#000000" stroke-width="1" stroke-linecap="round"/><path d="M318.09648,205.35021l-11.51693,-7.80596l6.41552,-9.46549l11.51693,7.80596z" fill="#00ffff" stroke="#000000" stroke-width="1" stroke-linecap="butt"/><path d="M296.02751,196.18238c-4.88885,-3.31358 -6.16589,-9.96297 -2.85232,-14.85183c3.31357,-4.88886 9.96297,-6.16589 14.85183,-2.85232c4.88885,3.31358 6.16589,9.96297 2.85232,14.85183c-3.31357,4.88886 -9.96297,6.16589 -14.85183,2.85232z" fill="#ffffff" stroke="#000000" stroke-width="1" stroke-linecap="butt"/><path d="M304.74698,193.097c0,0 0.13883,-0.69828 0.43431,-1.02664c0.31739,-0.35273 1.40899,-1.02186 1.40899,-1.02186" fill="none" stroke="#000000" stroke-width="1" stroke-linecap="round"/><path d="M302.83004,197.93863c-4.36105,-0.03989 -8.13951,-4.2659 -8.13951,-4.2659c0,0 4.09516,1.80084 8.07977,1.83728c3.98462,0.03643 7.69623,-2.63034 7.69623,-2.63034c0,0 -3.27545,5.09883 -7.63649,5.05894z" fill="#bbbbbb" stroke="#bbbbbb" stroke-width="1" stroke-linecap="round"/><path d="M296.02751,196.18238c-4.88885,-3.31358 -6.16589,-9.96297 -2.85232,-14.85183c3.31358,-4.88885 9.96297,-6.16589 14.85183,-2.85232c4.88885,3.31358 6.16589,9.96297 2.85232,14.85183c-3.31358,4.88885 -9.96297,6.16589 -14.85183,2.85232z" fill="none" stroke="#000000" stroke-width="1" stroke-linecap="butt"/><path d="M300.57302,187.33549c0,0 0.10007,1.5354 -0.22915,2.02116c-0.32923,0.48574 -0.49961,-0.94593 -0.49961,-0.94593c0,0 -1.38255,0.58923 -1.05332,0.10348c0.32923,-0.48574 1.78209,-1.1787 1.78209,-1.1787z" fill="#000000" stroke="#000000" stroke-width="0" stroke-linecap="butt"/><path d="M307.92925,198.36327l9.29348,1.10942" fill="none" stroke="#000000" stroke-width="1" stroke-linecap="round"/><path d="M281.08057,196.56015l-2.22174,6.0012l-4.89483,2.35022l-7.6343,-3.36987l-1.87672,-5.55644l0.7507,-3.12426l-5.5946,-3.32312l4.67033,-1.02049l13.88718,4.38958z" fill="#00ceff" stroke="#000000" stroke-width="1" stroke-linecap="round"/><path d="M303.93462,180.92518c0.32923,-0.48574 0.29407,1.01671 0.29407,1.01671c0,0 1.39295,-0.37209 1.06372,0.11366c-0.32923,0.48574 -1.79247,0.96156 -1.79247,0.96156c0,0 0.10546,-1.60618 0.43469,-2.09193z" fill="#000000" stroke="#000000" stroke-width="0" stroke-linecap="butt"/></g></g></svg>