<svg version="1.1" xmlns="http://www.w3.org/2000/svg" xmlns:xlink="http://www.w3.org/1999/xlink" width="40.40009" height="45.2877" viewBox="0,0,40.40009,45.2877"><g transform="translate(-293.13287,-158.54626)"><g stroke-miterlimit="10"><path d="M323.81671,203.33396l-4.88764,-3.79645" fill="none" stroke="#000000" stroke-width="1" stroke-linecap="round"/><path d="M323.46284,195.94394l5.19764,3.89384" fill="none" stroke="#000000" stroke-width="1" stroke-linecap="round"/><path d="M322.2264,183.90767l10.80656,4.22731" fill="none" stroke="#000000" stroke-width="1" stroke-linecap="round"/><path d="M317.07256,199.77659l-4.87908,-13.02948l10.7086,-4.01l4.87908,13.02948z" fill="#00ffff" stroke="#000000" stroke-width="1" stroke-linecap="butt"/><path d="M304.37384,179.53231c-2.07113,-5.53092 0.73358,-11.69362 6.2645,-13.76476c5.53093,-2.07114 11.69362,0.73358 13.76476,6.2645c2.07113,5.53092 -0.73358,11.69362 -6.2645,13.76476c-5.53093,2.07114 -11.69362,-0.73358 -13.76476,-6.2645z" fill="#ffffff" stroke="#000000" stroke-width="1" stroke-linecap="butt"/><path d="M313.27118,182.05938c0,0 0.51717,-0.48929 0.94814,-0.58622c0.46294,-0.10413 1.74044,-0.0185 1.74044,-0.0185" fill="none" stroke="#000000" stroke-width="1" stroke-linecap="round"/><path d="M308.90683,184.89988c-3.53429,-2.55523 -4.17186,-8.18811 -4.17186,-8.18811c0,0 2.29876,3.83785 5.52798,6.17251c3.22923,2.33466 7.79945,2.30635 7.79945,2.30635c0,0 -5.62128,2.26446 -9.15557,-0.29076z" fill="#bbbbbb" stroke="#bbbbbb" stroke-width="1" stroke-linecap="round"/><path d="M304.37384,179.53231c-2.07113,-5.53092 0.73358,-11.69362 6.2645,-13.76476c5.53092,-2.07113 11.69362,0.73358 13.76476,6.2645c2.07113,5.53092 -0.73358,11.69362 -6.2645,13.76476c-5.53092,2.07113 -11.69362,-0.73358 -13.76476,-6.2645z" fill="none" stroke="#000000" stroke-width="1" stroke-linecap="butt"/><path d="M313.19923,174.94518c0,0 -0.80653,1.31034 -1.35607,1.51613c-0.54954,0.20578 0.13964,-1.06061 0.13964,-1.06061c0,0 -1.46861,-0.31911 -0.91906,-0.52489c0.54954,-0.20578 2.1355,0.06939 2.1355,0.06939z" fill="#000000" stroke="#000000" stroke-width="0" stroke-linecap="butt"/><path d="M319.75972,194.4768l-6.93905,-6.28086" fill="none" stroke="#000000" stroke-width="1" stroke-linecap="round"/><path d="M299.27189,177.81685l-4.96617,-4.0358l-0.64891,-5.3909l5.64863,-6.14259l5.86481,0.01241l2.71614,1.71674l4.9476,-4.22657l-0.53772,4.75018l-8.62748,11.73409z" fill="#00ceff" stroke="#000000" stroke-width="1" stroke-linecap="round"/><path d="M319.64943,171.66076c0.54954,-0.20578 -0.34825,0.99946 -0.34825,0.99946c0,0 1.35148,0.50224 0.80194,0.70803c-0.54954,0.20578 -2.01836,-0.25252 -2.01836,-0.25252c0,0 1.01513,-1.24918 1.56468,-1.45497z" fill="#000000" stroke="#000000" stroke-width="0" stroke-linecap="butt"/></g></g></svg>