<svg version="1.1" xmlns="http://www.w3.org/2000/svg" xmlns:xlink="http://www.w3.org/1999/xlink" width="77.63378" height="22.39209" viewBox="0,0,77.63378,22.39209"><g transform="translate(-249.7597,-187.41613)"><g stroke-miterlimit="10"><path d="M320.55588,205.33127l6.183,0.26951" fill="none" stroke="#000000" stroke-width="1" stroke-linecap="round"/><path d="M320.40128,201.36069l6.4922,0.16963" fill="none" stroke="#000000" stroke-width="1" stroke-linecap="round"/><path d="M319.67595,198.13199l-11.26036,2.80287" fill="none" stroke="#000000" stroke-width="1" stroke-linecap="round"/><path d="M321.17681,206.46268l-13.9063,0.43286l-0.35577,-11.42925l13.9063,-0.43287z" fill="#00ffff" stroke="#000000" stroke-width="1" stroke-linecap="butt"/><path d="M295.62299,209.05102c-5.7652,-1.28184 -9.39972,-6.99458 -8.11791,-12.75979c1.28182,-5.76521 6.99458,-9.39973 12.75979,-8.11791c5.7652,1.28184 9.39972,6.99458 8.11791,12.75979c-1.28182,5.76521 -6.99458,9.39973 -12.75979,8.11791z" fill="#ffffff" stroke="#000000" stroke-width="1" stroke-linecap="butt"/><path d="M302.59503,202.97324c0,0 -0.1279,-0.70037 0.026,-1.11442c0.1653,-0.44478 0.93404,-1.46868 0.93404,-1.46868" fill="none" stroke="#000000" stroke-width="1" stroke-linecap="round"/><path d="M298.7467,209.2205c-4.36105,-0.03989 -8.13951,-4.2659 -8.13951,-4.2659c0,0 4.09516,1.80084 8.07977,1.83728c3.98462,0.03643 7.69623,-2.63034 7.69623,-2.63034c0,0 -3.27545,5.09883 -7.63649,5.05894z" fill="#bbbbbb" stroke="#bbbbbb" stroke-width="1" stroke-linecap="round"/><path d="M295.62299,209.05102c-5.7652,-1.28184 -9.39972,-6.99458 -8.11791,-12.75979c1.28184,-5.76521 6.99458,-9.39973 12.75979,-8.11791c5.7652,1.28184 9.39972,6.99458 8.11791,12.75979c-1.28184,5.76521 -6.99458,9.39973 -12.75979,8.11791z" fill="none" stroke="#000000" stroke-width="1" stroke-linecap="butt"/><path d="M296.59365,199.15219c0,0 0.6581,1.39081 0.53076,1.96364c-0.12736,0.57281 -0.81266,-0.69567 -0.81266,-0.69567c0,0 -1.06868,1.05668 -0.94132,0.48386c0.12736,-0.57281 1.22324,-1.75182 1.22324,-1.75182z" fill="#000000" stroke="#000000" stroke-width="0" stroke-linecap="butt"/><path d="M308.84591,206.34084l9.29348,1.10942" fill="none" stroke="#000000" stroke-width="1" stroke-linecap="round"/><path d="M273.67367,198.43298l-0.59034,6.37197l-4.11839,3.53861l-8.24685,-1.27595l-3.25278,-4.88012l-0.08474,-3.21207l-6.26474,-1.75947l4.24622,-2.19613l14.55034,0.6401z" fill="#00ceff" stroke="#000000" stroke-width="1" stroke-linecap="round"/><path d="M297.36021,191.95463c0.12736,-0.57281 0.6476,0.83713 0.6476,0.83713c0,0 1.15826,-0.85861 1.0309,-0.28579c-0.12736,0.57281 -1.3128,1.55374 -1.3128,1.55374c0,0 -0.49304,-1.53226 -0.36568,-2.10509z" fill="#000000" stroke="#000000" stroke-width="0" stroke-linecap="butt"/></g></g></svg>